<svg width="24" height="30" viewBox="0 0 24 30" fill="none" xmlns="http://www.w3.org/2000/svg">
<path d="M16.5 21H7.5C7.10218 21 6.72064 21.158 6.43934 21.4393C6.15804 21.7206 6 22.1022 6 22.5C6 22.8978 6.15804 23.2794 6.43934 23.5607C6.72064 23.842 7.10218 24 7.5 24H16.5C16.8978 24 17.2794 23.842 17.5607 23.5607C17.842 23.2794 18 22.8978 18 22.5C18 22.1022 17.842 21.7206 17.5607 21.4393C17.2794 21.158 16.8978 21 16.5 21ZM7.5 12H9C9.39782 12 9.77936 11.842 10.0607 11.5607C10.342 11.2794 10.5 10.8978 10.5 10.5C10.5 10.1022 10.342 9.72064 10.0607 9.43934C9.77936 9.15804 9.39782 9 9 9H7.5C7.10218 9 6.72064 9.15804 6.43934 9.43934C6.15804 9.72064 6 10.1022 6 10.5C6 10.8978 6.15804 11.2794 6.43934 11.5607C6.72064 11.842 7.10218 12 7.5 12V12ZM16.5 15H7.5C7.10218 15 6.72064 15.158 6.43934 15.4393C6.15804 15.7206 6 16.1022 6 16.5C6 16.8978 6.15804 17.2794 6.43934 17.5607C6.72064 17.842 7.10218 18 7.5 18H16.5C16.8978 18 17.2794 17.842 17.5607 17.5607C17.842 17.2794 18 16.8978 18 16.5C18 16.1022 17.842 15.7206 17.5607 15.4393C17.2794 15.158 16.8978 15 16.5 15ZM23.565 19.935C23.4223 19.7984 23.2541 19.6914 23.07 19.62C22.8909 19.5388 22.6966 19.4968 22.5 19.4968C22.3034 19.4968 22.1091 19.5388 21.93 19.62C21.7459 19.6914 21.5777 19.7984 21.435 19.935C21.3025 20.0808 21.196 20.2482 21.12 20.43C21.0051 20.7032 20.9737 21.0042 21.0298 21.2952C21.0859 21.5862 21.2269 21.8541 21.435 22.065C21.5752 22.204 21.7414 22.314 21.9241 22.3887C22.1069 22.4633 22.3026 22.5011 22.5 22.5C22.696 22.4976 22.8897 22.4569 23.07 22.38C23.2518 22.304 23.4192 22.1975 23.565 22.065C23.7731 21.8541 23.9141 21.5862 23.9702 21.2952C24.0263 21.0042 23.9949 20.7032 23.88 20.43C23.804 20.2482 23.6975 20.0808 23.565 19.935V19.935ZM24 10.41C23.9844 10.2722 23.9542 10.1364 23.91 10.005V9.87C23.8379 9.71577 23.7417 9.574 23.625 9.45L14.625 0.45C14.501 0.333324 14.3592 0.237121 14.205 0.165C14.1602 0.15864 14.1148 0.15864 14.07 0.165C13.9176 0.0776119 13.7493 0.0215163 13.575 0H4.5C3.30653 0 2.16193 0.474106 1.31802 1.31802C0.474106 2.16193 0 3.30653 0 4.5V25.5C0 26.6935 0.474106 27.8381 1.31802 28.682C2.16193 29.5259 3.30653 30 4.5 30H16.5C16.8978 30 17.2794 29.842 17.5607 29.5607C17.842 29.2794 18 28.8978 18 28.5C18 28.1022 17.842 27.7206 17.5607 27.4393C17.2794 27.158 16.8978 27 16.5 27H4.5C4.10218 27 3.72064 26.842 3.43934 26.5607C3.15804 26.2794 3 25.8978 3 25.5V4.5C3 4.10218 3.15804 3.72064 3.43934 3.43934C3.72064 3.15804 4.10218 3 4.5 3H12V7.5C12 8.69347 12.4741 9.83807 13.318 10.682C14.1619 11.5259 15.3065 12 16.5 12H21V15C21 15.3978 21.158 15.7794 21.4393 16.0607C21.7206 16.342 22.1022 16.5 22.5 16.5C22.8978 16.5 23.2794 16.342 23.5607 16.0607C23.842 15.7794 24 15.3978 24 15V10.5V10.41ZM16.5 9C16.1022 9 15.7206 8.84196 15.4393 8.56066C15.158 8.27936 15 7.89782 15 7.5V5.115L18.885 9H16.5ZM22.5 24C22.1022 24 21.7206 24.158 21.4393 24.4393C21.158 24.7206 21 25.1022 21 25.5V28.5C21 28.8978 21.158 29.2794 21.4393 29.5607C21.7206 29.842 22.1022 30 22.5 30C22.8978 30 23.2794 29.842 23.5607 29.5607C23.842 29.2794 24 28.8978 24 28.5V25.5C24 25.1022 23.842 24.7206 23.5607 24.4393C23.2794 24.158 22.8978 24 22.5 24Z" fill="#F8F8F8"/>
</svg>
