<svg width="24" height="30" viewBox="0 0 24 30" fill="none" xmlns="http://www.w3.org/2000/svg">
<path d="M12 18C11.6022 18 11.2206 18.158 10.9393 18.4393C10.658 18.7206 10.5 19.1022 10.5 19.5V22.5C10.5 22.8978 10.658 23.2794 10.9393 23.5607C11.2206 23.842 11.6022 24 12 24C12.3978 24 12.7794 23.842 13.0607 23.5607C13.342 23.2794 13.5 22.8978 13.5 22.5V19.5C13.5 19.1022 13.342 18.7206 13.0607 18.4393C12.7794 18.158 12.3978 18 12 18ZM12.57 13.62C12.2985 13.4941 11.9955 13.4523 11.7 13.5L11.43 13.59L11.16 13.725L10.935 13.905C10.7923 14.0487 10.6802 14.2198 10.6055 14.408C10.5307 14.5962 10.4948 14.7976 10.5 15C10.4989 15.1974 10.5367 15.3931 10.6113 15.5759C10.686 15.7586 10.796 15.9248 10.935 16.065C11.0777 16.2016 11.2459 16.3086 11.43 16.38C11.608 16.464 11.8032 16.5051 12 16.5C12.1974 16.5011 12.3931 16.4633 12.5759 16.3887C12.7586 16.314 12.9248 16.204 13.065 16.065C13.204 15.9248 13.314 15.7586 13.3887 15.5759C13.4633 15.3931 13.5011 15.1974 13.5 15C13.5011 14.8026 13.4633 14.6069 13.3887 14.4241C13.314 14.2414 13.204 14.0752 13.065 13.935C12.9192 13.8025 12.7518 13.696 12.57 13.62V13.62ZM24 10.41C23.9844 10.2722 23.9542 10.1364 23.91 10.005V9.87C23.8379 9.71577 23.7417 9.574 23.625 9.45L14.625 0.45C14.501 0.333324 14.3592 0.237121 14.205 0.165H14.055C13.9091 0.0870046 13.7524 0.031383 13.59 0H4.5C3.30653 0 2.16193 0.474106 1.31802 1.31802C0.474106 2.16193 0 3.30653 0 4.5V25.5C0 26.6935 0.474106 27.8381 1.31802 28.682C2.16193 29.5259 3.30653 30 4.5 30H19.5C20.6935 30 21.8381 29.5259 22.682 28.682C23.5259 27.8381 24 26.6935 24 25.5V10.5V10.41ZM15 5.115L18.885 9H16.5C16.1022 9 15.7206 8.84196 15.4393 8.56066C15.158 8.27936 15 7.89782 15 7.5V5.115ZM21 25.5C21 25.8978 20.842 26.2794 20.5607 26.5607C20.2794 26.842 19.8978 27 19.5 27H4.5C4.10218 27 3.72064 26.842 3.43934 26.5607C3.15804 26.2794 3 25.8978 3 25.5V4.5C3 4.10218 3.15804 3.72064 3.43934 3.43934C3.72064 3.15804 4.10218 3 4.5 3H12V7.5C12 8.69347 12.4741 9.83807 13.318 10.682C14.1619 11.5259 15.3065 12 16.5 12H21V25.5Z" fill="#F8F8F8"/>
</svg>
